Coordinates
version=1
nRows=43
nColumns=12
inDegrees=yes

Units are S.I. units (second, meters, Newtons, ...)
Angles are in degrees

endheader
time	SC_y	SC_z	SC_x	AC_y	AC_z	AC_x	GH_y	GH_z	GH_yy	EL_x	PS_y
       0.0               -43.6          32.98          56.31          52.95          8.672          3.848          87.47         -12.52         -153.0          124.6          64.13
    0.0318               -43.6          32.98           56.3          52.95          8.668          3.846          87.46         -12.51         -153.0          124.6          64.14
    0.0636              -43.59          32.98           56.3          52.95          8.664          3.843          87.45         -12.51         -153.0          124.6          64.15
    0.0954              -43.59          32.98          56.29          52.95          8.659           3.84          87.44         -12.51         -152.9          124.6          64.16
    0.1272              -43.59          32.98          56.28          52.96          8.655          3.837          87.43          -12.5         -152.9          124.6          64.18
     0.159              -43.58          32.98          56.27          52.96          8.649          3.833          87.42          -12.5         -152.8          124.6          64.19
    0.1908              -43.58          32.98          56.26          52.96          8.644          3.829           87.4          -12.5         -152.7          124.6           64.2
    0.2226              -43.57          32.98          56.25          52.96          8.638          3.826          87.39         -12.49         -152.7          124.6          64.22
    0.2544              -43.57          32.98          56.24          52.97          8.632          3.821          87.38         -12.49         -152.6          124.6          64.23
    0.2862              -43.56          32.98          56.23          52.97          8.625          3.817          87.36         -12.48         -152.5          124.6          64.25
     0.318              -43.56          32.98          56.22          52.97          8.618          3.812          87.34         -12.48         -152.5          124.6          64.26
    0.3498              -43.55          32.98          56.21          52.98           8.61          3.807          87.32         -12.47         -152.4          124.5          64.28
    0.3816              -43.55          32.98          56.19          52.98          8.602          3.801           87.3         -12.47         -152.3          124.5           64.3
    0.4134              -43.54          32.98          56.18          52.99          8.593          3.795          87.28         -12.46         -152.2          124.5          64.32
    0.4452              -43.53          32.98          56.16          52.99          8.583          3.789          87.26         -12.45         -152.1          124.5          64.35
     0.477              -43.52          32.98          56.14           53.0          8.572          3.782          87.23         -12.45         -152.0          124.5          64.37
    0.5088              -43.51          32.98          56.12           53.0          8.561          3.774          87.21         -12.44         -151.8          124.5           64.4
    0.5406               -43.5          32.98           56.1          53.01          8.548          3.765          87.18         -12.43         -151.7          124.5          64.43
    0.5724              -43.49          32.98          56.08          53.02          8.534          3.756          87.14         -12.42         -151.5          124.4          64.46
    0.6042              -43.48          32.98          56.05          53.02          8.519          3.746          87.11         -12.41         -151.4          124.4           64.5
     0.636              -43.47          32.99          56.03          53.03          8.503          3.735          87.07          -12.4         -151.2          124.4          64.54
    0.6678              -43.45          32.99           56.0          53.04          8.484          3.723          87.02         -12.39         -151.0          124.4          64.58
    0.6996              -43.44          32.99          55.96          53.05          8.464          3.709          86.98         -12.37         -150.8          124.4          64.63
    0.7314              -43.42          32.99          55.92          53.06          8.442          3.695          86.92         -12.36         -150.5          124.3          64.68
    0.7632               -43.4          32.99          55.88          53.08          8.417          3.678          86.86         -12.34         -150.3          124.3          64.74
     0.795              -43.38          32.99          55.84          53.09           8.39           3.66           86.8         -12.32         -149.9          124.3          64.81
    0.8268              -43.35          32.99          55.78          53.11          8.359          3.639          86.73          -12.3         -149.6          124.2          64.88
    0.8586              -43.33           33.0          55.73          53.13          8.324          3.616          86.64         -12.28         -149.2          124.2          64.96
    0.8904               -43.3           33.0          55.66          53.15          8.284          3.589          86.55         -12.25         -148.8          124.1          65.06
    0.9222              -43.26           33.0          55.59          53.17           8.24          3.559          86.44         -12.22         -148.3          124.1          65.16
     0.954              -43.22           33.0           55.5          53.19          8.189          3.525          86.32         -12.18         -147.7          124.0          65.28
    0.9858              -43.17          33.01           55.4          53.22           8.13          3.486          86.18         -12.14         -147.1          123.9          65.42
     1.018              -43.12          33.01          55.29          53.26          8.063          3.441          86.02          -12.1         -146.4          123.8          65.58
     1.049              -43.06          33.02          55.16           53.3          7.984          3.389          85.83         -12.04         -145.5          123.7          65.77
     1.081              -42.99          33.02           55.0          53.35          7.892          3.327          85.62         -11.98         -144.5          123.6          65.99
     1.113               -42.9          33.03          54.82           53.4          7.784          3.255          85.36          -11.9         -143.3          123.4          66.25
     1.145               -42.8          33.04          54.61          53.47          7.655          3.169          85.05         -11.81         -141.9          123.3          66.55
     1.177              -42.68          33.04          54.35          53.55          7.501          3.066          84.69         -11.71         -140.2          123.1          66.92
     1.208              -42.53          33.06          54.03          53.64          7.314          2.941          84.24         -11.58         -138.1          122.8          67.36
      1.24              -42.35          33.07          53.65          53.76          7.086          2.789           83.7         -11.42         -135.6          122.5          67.91
     1.272              -42.13          33.09          53.18          53.91          6.805          2.601          83.03         -11.23         -132.6          122.1          68.57
     1.304              -41.85          33.11          52.59          54.09          6.454          2.366           82.2         -10.98         -128.7          121.7          69.41
     1.336               -41.5          33.13          51.85          54.31          6.012          2.071          81.14         -10.68         -123.8          121.1          70.46
